<svg xmlns="http://www.w3.org/2000/svg" xmlns:xlink="http://www.w3.org/1999/xlink" width="60" zoomAndPan="magnify" viewBox="0 0 45 44.999999" height="60" preserveAspectRatio="xMidYMid meet" version="1.0"><defs><clipPath id="47f996ac30"><path d="M 4.5 4.5 L 40.5 4.5 L 40.5 40.5 L 4.5 40.5 Z M 4.5 4.5 " clip-rule="nonzero"/></clipPath></defs><g clip-path="url(#47f996ac30)"><path fill="#9ab3fd" d="M 35.132812 34.921875 L 29.839844 34.921875 L 29.839844 26.636719 C 29.839844 24.660156 29.804688 22.117188 27.089844 22.117188 C 24.332031 22.117188 23.914062 24.269531 23.914062 26.492188 L 23.914062 34.921875 L 18.621094 34.921875 L 18.621094 17.882812 L 23.699219 17.882812 L 23.699219 20.210938 L 23.773438 20.210938 C 24.027344 19.777344 24.332031 19.386719 24.695312 19.035156 C 25.054688 18.683594 25.457031 18.386719 25.898438 18.144531 C 26.339844 17.902344 26.804688 17.722656 27.292969 17.605469 C 27.785156 17.492188 28.28125 17.441406 28.78125 17.460938 C 34.144531 17.460938 35.132812 20.988281 35.132812 25.574219 Z M 12.652344 15.554688 C 12.246094 15.554688 11.855469 15.476562 11.476562 15.320312 C 11.101562 15.167969 10.769531 14.945312 10.480469 14.65625 C 10.195312 14.367188 9.972656 14.035156 9.816406 13.660156 C 9.660156 13.285156 9.582031 12.894531 9.582031 12.484375 C 9.582031 12.078125 9.660156 11.6875 9.816406 11.3125 C 9.972656 10.933594 10.191406 10.601562 10.480469 10.316406 C 10.769531 10.027344 11.101562 9.804688 11.476562 9.648438 C 11.851562 9.492188 12.246094 9.414062 12.652344 9.414062 C 13.058594 9.414062 13.449219 9.492188 13.828125 9.648438 C 14.203125 9.804688 14.535156 10.027344 14.824219 10.3125 C 15.109375 10.601562 15.332031 10.933594 15.488281 11.308594 C 15.644531 11.6875 15.722656 12.078125 15.722656 12.484375 C 15.722656 12.890625 15.644531 13.285156 15.488281 13.660156 C 15.332031 14.035156 15.109375 14.367188 14.824219 14.65625 C 14.535156 14.945312 14.203125 15.164062 13.828125 15.320312 C 13.453125 15.476562 13.058594 15.554688 12.652344 15.554688 M 15.296875 34.921875 L 10 34.921875 L 10 17.882812 L 15.296875 17.882812 Z M 37.769531 4.503906 L 7.34375 4.503906 C 7 4.5 6.664062 4.5625 6.34375 4.6875 C 6.023438 4.816406 5.742188 5.003906 5.492188 5.242188 C 5.246094 5.484375 5.054688 5.765625 4.917969 6.082031 C 4.78125 6.398438 4.710938 6.730469 4.707031 7.074219 L 4.707031 37.628906 C 4.710938 37.972656 4.78125 38.304688 4.917969 38.621094 C 5.054688 38.941406 5.246094 39.21875 5.492188 39.460938 C 5.738281 39.703125 6.023438 39.886719 6.34375 40.015625 C 6.664062 40.144531 6.996094 40.207031 7.34375 40.203125 L 37.769531 40.203125 C 38.113281 40.207031 38.449219 40.144531 38.769531 40.015625 C 39.089844 39.890625 39.375 39.703125 39.625 39.460938 C 39.871094 39.222656 40.066406 38.941406 40.203125 38.625 C 40.339844 38.304688 40.410156 37.972656 40.414062 37.628906 L 40.414062 7.074219 C 40.410156 6.726562 40.339844 6.394531 40.199219 6.078125 C 40.0625 5.761719 39.871094 5.480469 39.625 5.238281 C 39.375 5 39.089844 4.8125 38.769531 4.683594 C 38.449219 4.558594 38.113281 4.496094 37.769531 4.5 " fill-opacity="1" fill-rule="nonzero"/></g></svg>