<svg xmlns="http://www.w3.org/2000/svg" xmlns:xlink="http://www.w3.org/1999/xlink" width="60" zoomAndPan="magnify" viewBox="0 0 45 44.999999" height="60" preserveAspectRatio="xMidYMid meet" version="1.0"><defs><clipPath id="6572a05f4a"><path d="M 4.5 4.894531 L 40.5 4.894531 L 40.5 40.144531 L 4.5 40.144531 Z M 4.5 4.894531 " clip-rule="nonzero"/></clipPath></defs><g clip-path="url(#6572a05f4a)"><path fill="#9ab3fd" d="M 22.445312 4.894531 C 12.539062 4.894531 4.53125 12.960938 4.53125 22.941406 C 4.53125 30.917969 9.664062 37.671875 16.78125 40.0625 C 17.671875 40.242188 17.996094 39.671875 17.996094 39.195312 C 17.996094 38.777344 17.96875 37.34375 17.96875 35.847656 C 12.984375 36.925781 11.945312 33.699219 11.945312 33.699219 C 11.144531 31.605469 9.960938 31.066406 9.960938 31.066406 C 8.328125 29.960938 10.078125 29.960938 10.078125 29.960938 C 11.886719 30.082031 12.835938 31.816406 12.835938 31.816406 C 14.4375 34.5625 17.019531 33.789062 18.058594 33.308594 C 18.203125 32.144531 18.679688 31.335938 19.183594 30.890625 C 15.210938 30.46875 11.027344 28.917969 11.027344 21.984375 C 11.027344 20.011719 11.738281 18.398438 12.867188 17.144531 C 12.6875 16.695312 12.066406 14.84375 13.042969 12.363281 C 13.042969 12.363281 14.558594 11.882812 17.96875 14.214844 C 19.433594 13.820312 20.925781 13.621094 22.445312 13.617188 C 23.960938 13.617188 25.5 13.828125 26.925781 14.214844 C 30.335938 11.882812 31.847656 12.363281 31.847656 12.363281 C 32.828125 14.84375 32.203125 16.695312 32.027344 17.144531 C 33.183594 18.398438 33.867188 20.011719 33.867188 21.984375 C 33.867188 28.917969 29.683594 30.441406 25.679688 30.890625 C 26.332031 31.457031 26.894531 32.53125 26.894531 34.234375 C 26.894531 36.65625 26.867188 38.597656 26.867188 39.195312 C 26.867188 39.671875 27.191406 40.242188 28.082031 40.0625 C 35.199219 37.671875 40.332031 30.917969 40.332031 22.941406 C 40.359375 12.960938 32.324219 4.894531 22.445312 4.894531 Z M 22.445312 4.894531 " fill-opacity="1" fill-rule="evenodd"/></g></svg>