<?xml version="1.0" encoding="UTF-8"?>
<svg xmlns="http://www.w3.org/2000/svg" version="1.1" viewBox="0 0 60 60">
  <g>
    <g id="Layer_1">
      <path class="cls-1" d="M46.8,46.6h-7.1v-11c0-2.6,0-6-3.7-6s-4.2,2.9-4.2,5.8v11.2h-7.1v-22.7h6.8v3.1h0c.3-.6.7-1.1,1.2-1.6.5-.5,1-.9,1.6-1.2s1.2-.6,1.9-.7c.7-.2,1.3-.2,2-.2,7.2,0,8.5,4.7,8.5,10.8v12.5ZM16.9,20.7c-.5,0-1.1-.1-1.6-.3-.5-.2-.9-.5-1.3-.9-.4-.4-.7-.8-.9-1.3s-.3-1-.3-1.6.1-1.1.3-1.6c.2-.5.5-.9.9-1.3.4-.4.8-.7,1.3-.9s1-.3,1.6-.3,1.1.1,1.6.3c.5.2.9.5,1.3.9.4.4.7.8.9,1.3.2.5.3,1,.3,1.6s-.1,1.1-.3,1.6-.5.9-.9,1.3c-.4.4-.8.7-1.3.9s-1,.3-1.6.3M20.4,46.6h-7.1v-22.7h7.1v22.7ZM50.4,6H9.8c-.5,0-.9,0-1.3.2-.4.2-.8.4-1.1.7-.3.3-.6.7-.8,1.1-.2.4-.3.9-.3,1.3v40.7c0,.5,0,.9.3,1.3.2.4.4.8.8,1.1.3.3.7.6,1.1.7s.9.3,1.3.3h40.6c.5,0,.9,0,1.3-.3.4-.2.8-.4,1.1-.7.3-.3.6-.7.8-1.1.2-.4.3-.9.3-1.3V9.4c0-.5,0-.9-.3-1.3-.2-.4-.4-.8-.8-1.1-.3-.3-.7-.6-1.1-.7-.4-.2-.9-.3-1.3-.2"/>
    </g>
  </g>
</svg>