<svg xmlns="http://www.w3.org/2000/svg" xmlns:xlink="http://www.w3.org/1999/xlink" width="60" zoomAndPan="magnify" viewBox="0 0 45 44.999999" height="60" preserveAspectRatio="xMidYMid meet" version="1.0"><defs><clipPath id="4478774d69"><path d="M 4.5 10.660156 L 24 10.660156 L 24 34 L 4.5 34 Z M 4.5 10.660156 " clip-rule="nonzero"/></clipPath><clipPath id="a0f5f53484"><path d="M 24 16 L 40.5 16 L 40.5 34.660156 L 24 34.660156 Z M 24 16 " clip-rule="nonzero"/></clipPath></defs><g clip-path="url(#4478774d69)"><path fill="#9ab3fd" d="M 14.925781 10.660156 C 15.898438 10.644531 16.859375 10.742188 17.8125 10.957031 C 18.613281 11.132812 19.359375 11.453125 20.039062 11.910156 C 20.675781 12.375 21.152344 12.960938 21.472656 13.679688 C 21.835938 14.554688 22.007812 15.46875 21.984375 16.417969 C 22.023438 17.472656 21.773438 18.449219 21.226562 19.351562 C 20.652344 20.199219 19.902344 20.839844 18.976562 21.277344 C 20.25 21.621094 21.261719 22.335938 22.007812 23.425781 C 22.71875 24.570312 23.050781 25.8125 23.011719 27.15625 C 23.035156 28.21875 22.824219 29.230469 22.378906 30.195312 C 21.964844 31.039062 21.386719 31.742188 20.640625 32.308594 C 19.875 32.867188 19.035156 33.269531 18.121094 33.515625 C 17.179688 33.777344 16.214844 33.90625 15.238281 33.90625 L 4.535156 33.90625 L 4.535156 10.660156 Z M 14.308594 20.0625 C 15.09375 20.09375 15.804688 19.878906 16.4375 19.414062 C 16.734375 19.148438 16.957031 18.832031 17.105469 18.457031 C 17.253906 18.085938 17.308594 17.699219 17.273438 17.300781 C 17.292969 16.835938 17.207031 16.390625 17.007812 15.96875 C 16.839844 15.632812 16.59375 15.363281 16.269531 15.171875 C 15.941406 14.960938 15.585938 14.824219 15.203125 14.761719 C 14.792969 14.679688 14.375 14.644531 13.957031 14.652344 L 9.382812 14.652344 L 9.382812 20.082031 L 14.308594 20.082031 Z M 14.574219 29.957031 C 15.039062 29.964844 15.496094 29.914062 15.945312 29.808594 C 16.359375 29.71875 16.742188 29.554688 17.089844 29.3125 C 17.4375 29.074219 17.703125 28.765625 17.890625 28.386719 C 18.105469 27.90625 18.199219 27.402344 18.175781 26.878906 C 18.222656 26.398438 18.160156 25.933594 17.992188 25.484375 C 17.824219 25.035156 17.5625 24.644531 17.214844 24.3125 C 16.460938 23.757812 15.613281 23.503906 14.675781 23.558594 L 9.382812 23.558594 L 9.382812 29.957031 Z M 14.574219 29.957031 " fill-opacity="1" fill-rule="nonzero"/></g><g clip-path="url(#a0f5f53484)"><path fill="#9ab3fd" d="M 29.917969 29.871094 C 30.71875 30.617188 31.667969 30.953125 32.761719 30.886719 C 33.605469 30.90625 34.367188 30.667969 35.050781 30.175781 C 35.609375 29.8125 35.996094 29.320312 36.214844 28.691406 L 40.082031 28.691406 C 39.660156 30.480469 38.710938 31.925781 37.238281 33.027344 C 35.839844 33.957031 34.296875 34.394531 32.617188 34.339844 C 31.433594 34.355469 30.296875 34.140625 29.199219 33.695312 C 28.207031 33.28125 27.347656 32.675781 26.625 31.882812 C 25.902344 31.054688 25.363281 30.121094 25.007812 29.078125 C 24.609375 27.921875 24.417969 26.726562 24.433594 25.5 C 24.425781 24.292969 24.625 23.125 25.027344 21.984375 C 25.296875 21.191406 25.679688 20.460938 26.179688 19.789062 C 26.679688 19.117188 27.273438 18.539062 27.957031 18.054688 C 28.640625 17.570312 29.382812 17.203125 30.179688 16.953125 C 30.980469 16.703125 31.800781 16.585938 32.636719 16.597656 C 33.894531 16.570312 35.078125 16.851562 36.191406 17.4375 C 37.195312 17.988281 38.023438 18.726562 38.6875 19.660156 C 39.359375 20.632812 39.832031 21.695312 40.097656 22.851562 C 40.390625 24.085938 40.492188 25.335938 40.40625 26.601562 L 28.886719 26.601562 C 28.789062 27.828125 29.132812 28.921875 29.917969 29.871094 Z M 34.96875 21.03125 C 34.285156 20.347656 33.460938 20.039062 32.496094 20.105469 C 31.882812 20.082031 31.300781 20.210938 30.757812 20.492188 C 30.328125 20.730469 29.960938 21.039062 29.652344 21.421875 C 29.378906 21.777344 29.183594 22.171875 29.058594 22.605469 C 28.949219 22.964844 28.882812 23.328125 28.855469 23.703125 L 35.988281 23.703125 C 35.925781 22.710938 35.585938 21.820312 34.972656 21.035156 Z M 34.96875 21.03125 " fill-opacity="1" fill-rule="nonzero"/></g><path fill="#9ab3fd" d="M 27.9375 12.214844 L 36.875 12.214844 L 36.875 14.5 L 27.9375 14.5 Z M 27.9375 12.214844 " fill-opacity="1" fill-rule="nonzero"/></svg>