<?xml version="1.0" encoding="UTF-8"?>
<svg id="Layer_1" xmlns="http://www.w3.org/2000/svg" viewBox="0 0 55.19 48.6">
  <defs>
    <style>
      .cls-1 {
        fill: #94affc;
      }
    </style>
  </defs>
  <path class="cls-1" d="M11.96,3.27c6.33,4.75,13.13,14.38,15.63,19.55,2.5-5.17,9.3-14.8,15.63-19.55,4.57-3.43,11.96-6.08,11.96,2.36,0,1.69-.97,14.16-1.53,16.18-1.97,7.04-9.15,8.84-15.54,7.75,11.16,1.9,14,8.19,7.87,14.49-11.65,11.95-16.74-3-18.04-6.83-.24-.7-.35-1.03-.35-.75,0-.28-.11.05-.35.75-1.3,3.83-6.4,18.78-18.04,6.83-6.13-6.29-3.29-12.59,7.87-14.49-6.39,1.09-13.56-.71-15.54-7.75C.97,19.79,0,7.32,0,5.63,0-2.81,7.4-.16,11.96,3.27Z"/>
</svg>