<?xml version="1.0" encoding="UTF-8"?>
<svg xmlns="http://www.w3.org/2000/svg" xmlns:xlink="http://www.w3.org/1999/xlink" version="1.1" viewBox="0 0 60 60">
  <defs>
    <style>
      .cls-1 {
        fill: none;
      }

      .cls-2 {
        fill: #9ab3fd;
      }

      .cls-3 {
        clip-path: url(#clippath);
      }
    </style>
    <clipPath id="clippath">
      <rect class="cls-1" x="6" y="6" width="48" height="48"/>
    </clipPath>
  </defs>
  <!-- Generator: Adobe Illustrator 28.7.1, SVG Export Plug-In . SVG Version: 1.2.0 Build 142)  -->
  <g>
    <g id="Layer_1">
      <g class="cls-3">
        <path class="cls-2" d="M20.1,6.2c-2.6.1-4.3.5-5.8,1.1-1.6.6-2.9,1.4-4.2,2.8-1.3,1.3-2.2,2.7-2.8,4.3-.6,1.5-1,3.3-1.1,5.8-.1,2.6-.1,3.4-.1,9.9,0,6.5,0,7.3.2,9.9.1,2.6.5,4.3,1.1,5.8.6,1.6,1.4,2.9,2.8,4.3,1.3,1.3,2.7,2.1,4.3,2.8,1.5.6,3.3,1,5.8,1.1,2.6.1,3.4.1,9.9.1,6.5,0,7.3,0,9.9-.2,2.6-.1,4.3-.5,5.8-1.1,1.6-.6,2.9-1.4,4.3-2.8,1.3-1.3,2.1-2.7,2.8-4.3.6-1.5,1-3.3,1.1-5.8.1-2.6.1-3.4.1-9.9,0-6.5,0-7.3-.2-9.9-.1-2.6-.5-4.3-1.1-5.8-.6-1.6-1.4-2.9-2.8-4.3-1.3-1.3-2.7-2.1-4.3-2.8-1.5-.6-3.3-1-5.8-1.1-2.6-.1-3.4-.1-9.9-.1-6.5,0-7.3,0-9.9.2M20.3,49.6c-2.3,0-3.6-.5-4.5-.8-1.1-.4-1.9-1-2.8-1.8-.8-.8-1.4-1.6-1.8-2.8-.3-.8-.7-2.1-.8-4.5-.1-2.5-.1-3.3-.2-9.7,0-6.4,0-7.2.1-9.7,0-2.3.5-3.6.8-4.5.4-1.1,1-1.9,1.8-2.8.8-.8,1.6-1.4,2.8-1.8.8-.3,2.1-.7,4.5-.8,2.5-.1,3.3-.1,9.7-.2,6.4,0,7.2,0,9.7.1,2.3.1,3.6.5,4.5.8,1.1.4,1.9.9,2.8,1.8.8.8,1.4,1.6,1.8,2.8s.7,2.1.8,4.5c.1,2.5.1,3.3.2,9.7s0,7.2-.1,9.7c-.1,2.3-.5,3.6-.8,4.5-.4,1.1-1,1.9-1.8,2.8-.8.8-1.6,1.4-2.8,1.8-.8.3-2.1.7-4.5.8-2.5.1-3.3.1-9.7.2-6.4,0-7.2,0-9.7-.1M39.9,17.2c0,.4,0,.8.2,1.1.2.3.4.7.6.9.3.3.6.5.9.6.4.1.7.2,1.1.2s.8,0,1.1-.2c.4-.1.7-.4.9-.6.3-.3.5-.6.6-.9s.2-.7.2-1.1,0-.8-.2-1.1c-.1-.4-.4-.7-.6-.9-.3-.3-.6-.5-.9-.6-.3-.1-.7-.2-1.1-.2s-.8,0-1.1.2c-.3.1-.7.4-.9.6-.3.3-.5.6-.6.9-.1.3-.2.7-.2,1.1M17.7,30c0,6.8,5.5,12.3,12.3,12.3,6.8,0,12.3-5.5,12.3-12.3,0-6.8-5.5-12.3-12.3-12.3-6.8,0-12.3,5.5-12.3,12.3M22,30c0-.5,0-1,.2-1.6,0-.5.3-1,.5-1.5.2-.5.4-.9.7-1.4s.6-.8,1-1.2c.4-.4.8-.7,1.2-1,.4-.3.9-.5,1.4-.7s1-.4,1.5-.5,1-.2,1.6-.2,1,0,1.6.2c.5,0,1,.3,1.5.5.5.2.9.4,1.4.7s.8.6,1.2,1c.4.4.7.8,1,1.2.3.4.5.9.7,1.4s.4,1,.5,1.5.2,1,.2,1.6,0,1-.2,1.6c0,.5-.3,1-.5,1.5-.2.5-.4.9-.7,1.4s-.6.8-1,1.2c-.4.4-.8.7-1.2,1-.4.3-.9.5-1.4.7s-1,.4-1.5.5-1,.2-1.6.2-1,0-1.6-.2c-.5,0-1-.3-1.5-.5-.5-.2-.9-.4-1.4-.7s-.8-.6-1.2-1c-.4-.4-.7-.8-1-1.2-.3-.4-.5-.9-.7-1.4-.2-.5-.4-1-.5-1.5-.1-.5-.2-1-.2-1.6"/>
      </g>
    </g>
  </g>
</svg>