<?xml version="1.0" encoding="UTF-8"?>
<svg id="Layer_1" xmlns="http://www.w3.org/2000/svg" viewBox="0 0 47.61 47.6">
  <defs>
    <style>
      .cls-1 {
        fill: #9ab3fd;
      }
    </style>
  </defs>
  <path class="cls-1" d="M40.57,40.56h-7.06v-11.05c0-2.64-.05-6.03-3.67-6.03s-4.23,2.87-4.23,5.83v11.24h-7.06v-22.72h6.77v3.1h.1c.34-.58.74-1.1,1.23-1.57.48-.47,1.02-.86,1.6-1.19s1.21-.56,1.86-.72c.66-.15,1.32-.22,1.98-.19,7.15,0,8.47,4.7,8.47,10.82v12.46ZM10.59,14.74c-.54,0-1.06-.1-1.57-.31-.5-.2-.94-.5-1.33-.89-.38-.39-.68-.83-.89-1.33s-.31-1.02-.31-1.57.1-1.06.31-1.56c.21-.51.5-.95.89-1.33.39-.39.83-.68,1.33-.89s1.03-.31,1.57-.31,1.06.1,1.57.31c.5.21.94.51,1.33.89.38.39.68.83.89,1.33.21.51.31,1.03.31,1.57s-.1,1.07-.31,1.57-.51.94-.89,1.33c-.39.39-.83.68-1.33.89s-1.03.31-1.57.31M14.12,40.56h-7.06v-22.72h7.06v22.72ZM44.08,0H3.52c-.46,0-.91.08-1.33.24-.43.17-.8.42-1.14.74-.33.32-.58.7-.77,1.12-.18.42-.28.86-.28,1.32v40.74c0,.46.1.9.28,1.32.18.43.44.8.77,1.12.33.32.71.57,1.14.74s.87.26,1.33.25h40.57c.46,0,.91-.08,1.33-.25.43-.17.81-.42,1.14-.74.33-.32.59-.69.77-1.11.18-.43.28-.87.28-1.33V3.43c0-.46-.1-.91-.29-1.33-.18-.42-.44-.8-.77-1.12-.33-.32-.71-.57-1.14-.74-.43-.17-.88-.25-1.33-.24"/>
</svg>