<?xml version="1.0" encoding="UTF-8"?>
<svg xmlns="http://www.w3.org/2000/svg" version="1.1" viewBox="0 0 60 60">
  <defs>
    <style>
      .cls-1 {
        fill: #94affc;
      }
    </style>
  </defs>
  <!-- Generator: Adobe Illustrator 28.7.1, SVG Export Plug-In . SVG Version: 1.2.0 Build 142)  -->
  <g>
    <g id="Layer_1">
      <path class="cls-1" d="M14.4,9c6.3,4.8,13.1,14.4,15.6,19.6,2.5-5.2,9.3-14.8,15.6-19.6,4.6-3.4,12-6.1,12,2.4s-1,14.2-1.5,16.2c-2,7-9.1,8.8-15.5,7.7,11.2,1.9,14,8.2,7.9,14.5-11.6,12-16.7-3-18-6.8-.2-.7-.4-1-.4-.8,0-.3-.1,0-.4.8-1.3,3.8-6.4,18.8-18,6.8-6.1-6.3-3.3-12.6,7.9-14.5-6.4,1.1-13.6-.7-15.5-7.7-.6-2-1.5-14.5-1.5-16.2,0-8.4,7.4-5.8,12-2.4Z"/>
    </g>
  </g>
</svg>