<svg xmlns="http://www.w3.org/2000/svg" xmlns:xlink="http://www.w3.org/1999/xlink" width="60" zoomAndPan="magnify" viewBox="0 0 45 44.999999" height="60" preserveAspectRatio="xMidYMid meet" version="1.0"><defs><clipPath id="3596fcc392"><path d="M 4.5 4.5 L 40.5 4.5 L 40.5 40.5 L 4.5 40.5 Z M 4.5 4.5 " clip-rule="nonzero"/></clipPath></defs><g clip-path="url(#3596fcc392)"><path fill="#9ab3fd" d="M 15.046875 4.625 C 13.128906 4.714844 11.820312 5.023438 10.679688 5.472656 C 9.496094 5.933594 8.492188 6.550781 7.496094 7.554688 C 6.496094 8.554688 5.882812 9.558594 5.425781 10.742188 C 4.980469 11.890625 4.679688 13.199219 4.597656 15.113281 C 4.511719 17.03125 4.492188 17.644531 4.503906 22.535156 C 4.511719 27.421875 4.53125 28.035156 4.625 29.957031 C 4.71875 31.871094 5.023438 33.179688 5.472656 34.320312 C 5.933594 35.503906 6.550781 36.507812 7.554688 37.507812 C 8.554688 38.503906 9.558594 39.117188 10.746094 39.574219 C 11.890625 40.019531 13.199219 40.320312 15.117188 40.402344 C 17.03125 40.488281 17.648438 40.507812 22.535156 40.496094 C 27.421875 40.488281 28.039062 40.46875 29.957031 40.375 C 31.875 40.285156 33.175781 39.976562 34.320312 39.53125 C 35.503906 39.066406 36.507812 38.449219 37.507812 37.449219 C 38.503906 36.445312 39.117188 35.441406 39.574219 34.257812 C 40.019531 33.113281 40.320312 31.800781 40.402344 29.886719 C 40.488281 27.964844 40.507812 27.351562 40.496094 22.464844 C 40.488281 17.578125 40.464844 16.964844 40.375 15.046875 C 40.285156 13.125 39.980469 11.824219 39.53125 10.679688 C 39.066406 9.496094 38.449219 8.492188 37.449219 7.492188 C 36.445312 6.496094 35.441406 5.882812 34.257812 5.425781 C 33.109375 4.980469 31.800781 4.679688 29.886719 4.597656 C 27.96875 4.515625 27.355469 4.492188 22.464844 4.503906 C 17.578125 4.511719 16.964844 4.53125 15.046875 4.625 M 15.253906 37.164062 C 13.5 37.089844 12.546875 36.796875 11.914062 36.554688 C 11.070312 36.230469 10.472656 35.839844 9.839844 35.210938 C 9.207031 34.585938 8.816406 33.984375 8.488281 33.144531 C 8.242188 32.507812 7.945312 31.558594 7.863281 29.800781 C 7.773438 27.90625 7.753906 27.335938 7.746094 22.53125 C 7.734375 17.722656 7.753906 17.15625 7.835938 15.257812 C 7.910156 13.503906 8.203125 12.550781 8.449219 11.914062 C 8.773438 11.074219 9.164062 10.476562 9.789062 9.84375 C 10.417969 9.210938 11.019531 8.820312 11.859375 8.492188 C 12.492188 8.246094 13.445312 7.949219 15.199219 7.867188 C 17.097656 7.777344 17.664062 7.757812 22.472656 7.75 C 27.277344 7.738281 27.847656 7.757812 29.746094 7.839844 C 31.5 7.917969 32.453125 8.207031 33.085938 8.453125 C 33.929688 8.777344 34.527344 9.164062 35.160156 9.792969 C 35.792969 10.421875 36.183594 11.019531 36.511719 11.863281 C 36.757812 12.496094 37.050781 13.445312 37.136719 15.203125 C 37.226562 17.101562 37.246094 17.667969 37.253906 22.472656 C 37.261719 27.277344 37.246094 27.847656 37.164062 29.746094 C 37.085938 31.5 36.796875 32.453125 36.550781 33.089844 C 36.226562 33.929688 35.835938 34.53125 35.207031 35.164062 C 34.578125 35.792969 33.980469 36.183594 33.140625 36.511719 C 32.507812 36.757812 31.554688 37.054688 29.800781 37.136719 C 27.902344 37.226562 27.335938 37.246094 22.527344 37.257812 C 17.722656 37.265625 17.152344 37.246094 15.253906 37.164062 M 29.929688 12.878906 C 29.929688 13.167969 29.984375 13.441406 30.09375 13.707031 C 30.207031 13.96875 30.363281 14.203125 30.566406 14.40625 C 30.765625 14.609375 31 14.765625 31.265625 14.875 C 31.53125 14.980469 31.808594 15.035156 32.09375 15.035156 C 32.378906 15.035156 32.65625 14.980469 32.917969 14.871094 C 33.183594 14.761719 33.417969 14.605469 33.621094 14.402344 C 33.820312 14.199219 33.976562 13.964844 34.085938 13.699219 C 34.195312 13.433594 34.25 13.160156 34.25 12.871094 C 34.25 12.585938 34.195312 12.308594 34.082031 12.046875 C 33.972656 11.78125 33.816406 11.546875 33.613281 11.347656 C 33.410156 11.144531 33.175781 10.988281 32.910156 10.878906 C 32.648438 10.769531 32.371094 10.714844 32.085938 10.714844 C 31.796875 10.714844 31.523438 10.773438 31.257812 10.882812 C 30.996094 10.992188 30.761719 11.148438 30.558594 11.351562 C 30.355469 11.554688 30.203125 11.789062 30.09375 12.054688 C 29.984375 12.316406 29.929688 12.59375 29.929688 12.878906 M 13.257812 22.519531 C 13.269531 27.621094 17.414062 31.75 22.515625 31.742188 C 27.621094 31.730469 31.753906 27.585938 31.742188 22.480469 C 31.734375 17.378906 27.585938 13.246094 22.480469 13.257812 C 17.378906 13.265625 13.246094 17.414062 13.257812 22.519531 M 16.5 22.511719 C 16.5 22.117188 16.535156 21.726562 16.613281 21.339844 C 16.6875 20.953125 16.800781 20.578125 16.953125 20.214844 C 17.101562 19.851562 17.285156 19.503906 17.503906 19.175781 C 17.722656 18.847656 17.972656 18.542969 18.25 18.265625 C 18.527344 17.984375 18.828125 17.738281 19.15625 17.515625 C 19.484375 17.296875 19.828125 17.113281 20.191406 16.960938 C 20.554688 16.808594 20.929688 16.695312 21.316406 16.617188 C 21.703125 16.539062 22.09375 16.5 22.488281 16.5 C 22.882812 16.5 23.273438 16.535156 23.660156 16.613281 C 24.046875 16.6875 24.421875 16.800781 24.785156 16.953125 C 25.148438 17.101562 25.496094 17.285156 25.824219 17.503906 C 26.152344 17.722656 26.457031 17.96875 26.734375 18.25 C 27.011719 18.527344 27.261719 18.828125 27.480469 19.15625 C 27.703125 19.484375 27.886719 19.828125 28.039062 20.191406 C 28.191406 20.554688 28.304688 20.929688 28.382812 21.316406 C 28.460938 21.703125 28.5 22.09375 28.5 22.488281 C 28.5 22.882812 28.464844 23.273438 28.386719 23.660156 C 28.3125 24.046875 28.199219 24.421875 28.046875 24.785156 C 27.898438 25.148438 27.714844 25.496094 27.496094 25.824219 C 27.277344 26.152344 27.027344 26.453125 26.75 26.734375 C 26.472656 27.011719 26.171875 27.261719 25.84375 27.480469 C 25.515625 27.703125 25.171875 27.886719 24.808594 28.039062 C 24.445312 28.191406 24.070312 28.304688 23.683594 28.382812 C 23.296875 28.460938 22.90625 28.5 22.511719 28.5 C 22.117188 28.5 21.726562 28.464844 21.339844 28.386719 C 20.953125 28.3125 20.578125 28.199219 20.214844 28.046875 C 19.851562 27.898438 19.503906 27.714844 19.175781 27.496094 C 18.847656 27.277344 18.542969 27.027344 18.265625 26.75 C 17.984375 26.472656 17.738281 26.171875 17.515625 25.84375 C 17.296875 25.515625 17.113281 25.171875 16.960938 24.808594 C 16.808594 24.441406 16.695312 24.066406 16.617188 23.683594 C 16.539062 23.296875 16.5 22.90625 16.5 22.511719 " fill-opacity="1" fill-rule="nonzero"/></g></svg>