<svg xmlns="http://www.w3.org/2000/svg" xmlns:xlink="http://www.w3.org/1999/xlink" width="60" zoomAndPan="magnify" viewBox="0 0 375 374.999991" height="60" preserveAspectRatio="xMidYMid meet" version="1.0"><defs><clipPath id="1a2a619fec"><path d="M 37.5 88.851562 L 192 88.851562 L 192 283 L 37.5 283 Z M 37.5 88.851562 " clip-rule="nonzero"/></clipPath><clipPath id="bd2fbd7793"><path d="M 203 138 L 337.5 138 L 337.5 286.101562 L 203 286.101562 Z M 203 138 " clip-rule="nonzero"/></clipPath></defs><g clip-path="url(#1a2a619fec)"><path fill="#9ab3fd" d="M 124.417969 88.851562 C 132.535156 88.699219 140.546875 89.523438 148.464844 91.320312 C 155.164062 92.78125 161.355469 95.429688 167.039062 99.265625 C 169.640625 101.15625 171.953125 103.351562 173.976562 105.851562 C 176 108.347656 177.664062 111.066406 178.972656 114.003906 C 182.015625 121.308594 183.433594 128.917969 183.230469 136.824219 C 183.402344 141.121094 182.953125 145.347656 181.878906 149.507812 C 180.804688 153.671875 179.152344 157.589844 176.925781 161.265625 C 174.582031 164.734375 171.820312 167.832031 168.636719 170.554688 C 165.453125 173.28125 161.96875 175.53125 158.175781 177.308594 C 160.730469 177.996094 163.203125 178.90625 165.59375 180.03125 C 167.984375 181.15625 170.257812 182.484375 172.414062 184.015625 C 174.570312 185.542969 176.578125 187.25 178.433594 189.132812 C 180.285156 191.019531 181.960938 193.050781 183.453125 195.230469 C 186.347656 199.890625 188.503906 204.867188 189.925781 210.160156 C 191.347656 215.457031 191.976562 220.84375 191.808594 226.324219 C 191.90625 230.691406 191.507812 235.015625 190.617188 239.292969 C 189.722656 243.570312 188.359375 247.695312 186.527344 251.660156 C 184.832031 255.121094 182.761719 258.339844 180.3125 261.316406 C 177.867188 264.292969 175.105469 266.945312 172.039062 269.273438 C 165.664062 273.921875 158.667969 277.273438 151.054688 279.335938 C 143.1875 281.511719 135.171875 282.589844 127.011719 282.566406 L 37.8125 282.566406 L 37.8125 88.851562 Z M 119.273438 167.203125 C 122.449219 167.332031 125.558594 166.933594 128.597656 166.011719 C 131.640625 165.085938 134.445312 163.683594 137.007812 161.808594 C 138.238281 160.714844 139.324219 159.492188 140.265625 158.144531 C 141.210938 156.796875 141.984375 155.359375 142.589844 153.828125 C 143.199219 152.300781 143.621094 150.722656 143.855469 149.09375 C 144.09375 147.464844 144.140625 145.832031 143.996094 144.195312 C 144.160156 140.308594 143.421875 136.609375 141.773438 133.085938 C 140.367188 130.265625 138.308594 128.046875 135.601562 126.433594 C 132.886719 124.675781 129.933594 123.535156 126.738281 123.015625 C 123.304688 122.347656 119.835938 122.046875 116.335938 122.113281 L 78.222656 122.113281 L 78.222656 167.375 L 119.273438 167.375 Z M 121.496094 249.675781 C 125.351562 249.726562 129.15625 249.316406 132.910156 248.441406 C 136.363281 247.679688 139.546875 246.300781 142.464844 244.304688 C 145.34375 242.296875 147.558594 239.722656 149.117188 236.578125 C 150.917969 232.578125 151.714844 228.386719 151.5 224.003906 C 151.691406 222.03125 151.660156 220.066406 151.402344 218.105469 C 151.144531 216.144531 150.667969 214.238281 149.972656 212.382812 C 149.28125 210.53125 148.386719 208.78125 147.289062 207.132812 C 146.195312 205.484375 144.929688 203.980469 143.488281 202.625 C 141.976562 201.507812 140.375 200.53125 138.695312 199.695312 C 137.011719 198.855469 135.269531 198.167969 133.464844 197.632812 C 131.664062 197.097656 129.832031 196.71875 127.960938 196.5 C 126.09375 196.28125 124.222656 196.222656 122.347656 196.328125 L 78.222656 196.328125 L 78.222656 249.675781 Z M 121.496094 249.675781 " fill-opacity="1" fill-rule="nonzero"/></g><g clip-path="url(#bd2fbd7793)"><path fill="#9ab3fd" d="M 249.363281 248.957031 C 250.949219 250.429688 252.667969 251.722656 254.515625 252.84375 C 256.367188 253.964844 258.308594 254.886719 260.34375 255.613281 C 262.382812 256.339844 264.472656 256.851562 266.613281 257.152344 C 268.753906 257.453125 270.902344 257.539062 273.0625 257.402344 C 276.484375 257.488281 279.828125 257.023438 283.097656 256.007812 C 286.363281 254.996094 289.382812 253.484375 292.15625 251.476562 C 294.410156 250.011719 296.371094 248.222656 298.03125 246.109375 C 299.695312 243.996094 300.972656 241.671875 301.871094 239.132812 L 334.097656 239.132812 C 333.246094 242.714844 332.089844 246.199219 330.632812 249.578125 C 329.171875 252.960938 327.433594 256.191406 325.414062 259.269531 C 323.394531 262.347656 321.125 265.230469 318.601562 267.914062 C 316.078125 270.597656 313.34375 273.042969 310.398438 275.25 C 307.566406 277.128906 304.605469 278.777344 301.519531 280.199219 C 298.433594 281.621094 295.253906 282.796875 291.984375 283.726562 C 288.714844 284.65625 285.394531 285.332031 282.019531 285.746094 C 278.648438 286.164062 275.261719 286.316406 271.863281 286.207031 C 262.007812 286.339844 252.515625 284.539062 243.390625 280.816406 C 239.304688 279.109375 235.449219 276.984375 231.828125 274.441406 C 228.207031 271.894531 224.902344 268.988281 221.914062 265.71875 C 215.90625 258.808594 211.417969 251.019531 208.449219 242.355469 C 205.121094 232.6875 203.53125 222.746094 203.671875 212.523438 C 203.609375 202.472656 205.257812 192.710938 208.609375 183.234375 C 209.164062 181.59375 209.78125 179.976562 210.460938 178.382812 C 211.144531 176.792969 211.886719 175.230469 212.691406 173.695312 C 213.496094 172.160156 214.359375 170.660156 215.28125 169.195312 C 216.203125 167.730469 217.183594 166.300781 218.214844 164.914062 C 219.25 163.523438 220.339844 162.175781 221.480469 160.875 C 222.621094 159.570312 223.808594 158.3125 225.046875 157.101562 C 226.289062 155.894531 227.574219 154.734375 228.902344 153.625 C 230.234375 152.515625 231.605469 151.460938 233.019531 150.457031 C 234.433594 149.457031 235.882812 148.511719 237.371094 147.625 C 238.859375 146.738281 240.378906 145.914062 241.929688 145.144531 C 243.484375 144.378906 245.066406 143.671875 246.671875 143.027344 C 248.28125 142.386719 249.910156 141.804688 251.566406 141.289062 C 253.21875 140.777344 254.890625 140.328125 256.578125 139.941406 C 258.269531 139.558594 259.96875 139.242188 261.683594 138.992188 C 263.398438 138.742188 265.121094 138.5625 266.847656 138.445312 C 268.574219 138.332031 270.304688 138.285156 272.039062 138.308594 C 277.191406 138.199219 282.277344 138.738281 287.292969 139.925781 C 292.3125 141.113281 297.101562 142.910156 301.660156 145.316406 C 305.78125 147.578125 309.597656 150.269531 313.109375 153.394531 C 316.617188 156.519531 319.734375 160 322.457031 163.832031 C 328.078125 171.945312 331.996094 180.8125 334.21875 190.429688 C 336.648438 200.722656 337.5 211.144531 336.773438 221.695312 L 240.785156 221.695312 C 240.59375 224.136719 240.636719 226.574219 240.910156 229.003906 C 241.1875 231.4375 241.691406 233.824219 242.429688 236.160156 C 243.164062 238.496094 244.113281 240.738281 245.28125 242.890625 C 246.445312 245.046875 247.808594 247.066406 249.363281 248.957031 Z M 291.476562 175.285156 C 290.132812 173.941406 288.664062 172.757812 287.066406 171.726562 C 285.46875 170.699219 283.78125 169.851562 282.003906 169.1875 C 280.222656 168.519531 278.394531 168.050781 276.515625 167.773438 C 274.636719 167.5 272.746094 167.429688 270.851562 167.558594 C 268.339844 167.464844 265.855469 167.6875 263.398438 168.238281 C 260.941406 168.785156 258.597656 169.636719 256.363281 170.792969 C 252.785156 172.761719 249.714844 175.339844 247.15625 178.519531 C 244.886719 181.5 243.242188 184.792969 242.21875 188.394531 C 241.300781 191.382812 240.734375 194.433594 240.515625 197.550781 L 299.96875 197.550781 C 299.710938 193.5 298.859375 189.578125 297.414062 185.785156 C 295.972656 181.992188 294 178.496094 291.5 175.296875 Z M 291.476562 175.285156 " fill-opacity="1" fill-rule="nonzero"/></g><path fill="#9ab3fd" d="M 232.851562 101.785156 L 307.351562 101.785156 L 307.351562 120.828125 L 232.851562 120.828125 Z M 232.851562 101.785156 " fill-opacity="1" fill-rule="nonzero"/></svg>