<?xml version="1.0" encoding="UTF-8"?>
<svg id="Layer_2" xmlns="http://www.w3.org/2000/svg" viewBox="0 0 1224 792">
  <defs>
    <style>
      .cls-1 {
        fill: #699;
      }

      .cls-2 {
        fill: #e0587c;
      }

      .cls-3 {
        fill: #f48cac;
      }
    </style>
  </defs>
  <path class="cls-2" d="M840.86,442.9c-4.93,67.01-21.11,123.47-40.05,168.56-35.27,83.96-139.53,112.25-212.75,58.09-44.07-32.6-91.88-78.81-131.23-142.97-135.01-220.17,188.24-298.67,188.24-298.67,0,0,215.6-54.19,195.79,215Z"/>
  <path class="cls-1" d="M601.68,285.16c-7.69,12.32-23.88,20.47-41.65,25.27-36.77,9.93-63.1-25.37-99.39-43.92-36.29-18.55-93.8,14.26-75.15-35.66,17.29-46.28,95.45-35.66,141.08-8.73,18.71,11.04,36.91,19.56,50.6,32.81,8.88,8.6,17.3,17.71,21.31,27.6"/>
  <path class="cls-1" d="M561.81,307.32c14.45,1.41,43.37-15.87,58.02-27.03,30.3-23.09,56-62.55,63.44-102.62,5.97-32.19-1.25-63.36-18.56-79.47-6.33-5.89-16.33-3.98-20.66,3.5-20.68,35.75-59.21,58.8-73.8,98.22-7.54,20.37-7.01,41.18-4.85,60.11,1.4,12.28,3.49,24.51,8.88,33.72"/>
  <path class="cls-3" d="M502.59,423.1c-7.78,28.63-26.48,26.48-26.48,26.48,0,0-25.16-1.99-18.87-29.96,6.29-27.97,30.45-25.32,30.45-25.32,0,0,22.68.17,14.9,28.8Z"/>
  <path class="cls-3" d="M495.45,459.18c11.95-4.61,17.59-12.25,19.82-15.66,1.67-2.55,4.48-4.17,7.52-4.05,1.23.05,2.55.35,4,1.06,12.28,6.06,14.69,20.55,7.77,31.39s-17.92,15.23-29.74,13.38c-10.1-1.58-13.77-5.27-15.18-9.73-.36-1.14-.48-2.35-.39-3.54,0,0-1.99-9.7,6.19-12.85Z"/>
  <path class="cls-3" d="M528.09,421.69l-1.11-17.54c-.29-4.55-2.46-8.78-5.99-11.68l-13.59-11.14c-4.14-3.39-1.98-10.09,3.36-10.43l17.54-1.11c4.55-.29,8.78-2.46,11.68-5.99l11.14-13.59c3.39-4.14,10.09-1.98,10.43,3.36l1.11,17.54c.29,4.55,2.46,8.78,5.99,11.68l13.59,11.14c4.14,3.39,1.98,10.09-3.36,10.43l-17.54,1.11c-4.55.29-8.78,2.46-11.68,5.99l-11.14,13.59c-3.39,4.14-10.09,1.98-10.43-3.36Z"/>
</svg>