<?xml version="1.0" encoding="UTF-8"?>
<svg id="Layer_2" xmlns="http://www.w3.org/2000/svg" viewBox="0 0 1224 792">
  <defs>
    <style>
      .cls-1 {
        fill: #699;
      }

      .cls-2 {
        fill: #e0587c;
      }

      .cls-3 {
        fill: #f48cac;
      }

      .cls-4 {
        stroke-width: 2.34px;
      }

      .cls-4, .cls-5, .cls-6, .cls-7 {
        fill: #aaa6ef;
      }

      .cls-4, .cls-6, .cls-7 {
        stroke: #aaa6ef;
        stroke-miterlimit: 10;
      }

      .cls-6 {
        stroke-width: 3.72px;
      }

      .cls-7 {
        stroke-width: 2.88px;
      }
    </style>
  </defs>
  <path class="cls-5" d="M212.25,313.7c-8.43,32.2,52.58,60.4,62.31,100.95,9.73,40.55,7.06,128.77-103.85,150.49-59.54,11.67-86.24-31.15-93.13-46.24-9.19-20.13-10.85-42.91-5.11-67.6,3.75-16.13,11.49-33.41,32.73-43.64,55.48-26.73,68.77,17.79,43.56,47.73-11.08,13.16-6.62,26.91-3.43,31.62,3.51,5.17,16.43,9.94,28.87,5.92,31.3-10.12,35.1-61.91,29.49-78.91-5.61-17-39.12-38.96-51-73.26-17.26-49.81-2.02-79.01,38.21-110.15,32.16-24.89,80.34-33,120.32-10.53,39.98,22.47,25.35,68.13,25.35,68.13,0,0-21.59,49.08-60.74,28.21,0,0-12.06-3.82-10.57-19.1,2.8-28.72-40.28-12.39-48.78,4.47-2.44,4.84-3.45,8.85-4.25,11.91Z"/>
  <path class="cls-7" d="M349.66,445.08c3.17-11.44,5.29-23.16,8.86-34.45,2.76-8.3,5.66-16.97,10.41-23.18,7.91-11.4,24.86-9.71,30.93,3.39,4.34,9.2,2.53,20.17.22,29.71-3.75,14.37-15.32,35.83,2.78,43.98,10.6,3.12,18.07-7.24,21.87-15.75,5.76-11.65,12.91-25.45,20.08-36.59,2.94-4.41,6.24-8.65,10.64-11.62,7.61-5.16,20.13-6.45,27.44-.23,8.07,8.35,3.6,21.41,1.69,32.88-10.3,41.99-16.13,72.44,15.04,104.49,70.26,76.93,178.89,51.15,228.26-13.27,6.72-7.88,11.04-22.03,6.23-32.57-4.67-10.56-16.68-14.28-27.52-8.76-9.02,4.36-16.19,13.57-22.06,20.2-34.04,38.93-107.08,41.98-142.86,1.1-20.22-25.24-23.79-57.04-20.82-88.97,1.23-10.98,2.62-22.51,1.21-32.15-8.19-45.58-56.96-33.62-85.92-11.04-4.23,3.07-5.12,2.3-4.94-2,.74-18.46-7.37-33.49-30.25-28.82-7.85,1.48-15.49,5.05-23.11,9.27-3.62,1.97-9.49,5.27-12.17,5.04l-.29-.02c-2.07-.19-3.07-2.05-3.44-5.44-.57-5.89.06-13.77-2.51-19.51-5.9-12.06-19.34,1.01-26.22,5.72-6.65,4.95-12.32,8.59-19.8,10.75-8.45,2.61-21.57,2.27-25.02,11.89-2.58,12.21,11.39,17.38,15.52,29.17,9.3,20.11,13.72,34.26,9.95,55.16-2.46,13.66-6.24,25.68-13.61,45.48-6.51,17.47-1.52,45.38,27.66,47.03,29.18,1.64,44.56-24.25,43.42-33.78-4.66-39.2-34.43-11.02-21.66-57.11Z"/>
  <path class="cls-7" d="M736.71,305.2c-5-.75-1.66-13.16-8.25-18.48-5.33-4.3-23.14-4.94-33.08,10.15-9.94,15.1-12.61,22.56-7.41,27.15,12.6,11.12,33.12,24.79,36.91,50.43,3.79,25.64,6.08,35.84.49,57.15-5.58,21.31.74,23.55,7.13,26.27,6.39,2.71,30.92-2.87,34.12-24.42s-13.22-59.8-13.95-83.08c-.29-9.16-2.39-13.64,9.26-33.25,2.44-4.11,6.4-7.29,11.08-8.26,5-1.04,11.38.06,16.92,8.58,11.08,17.05,32.61,4.64,37.37-3.46,4.76-8.1,12.07-35.13-17.55-50.47-27.98-14.49-53.81-2.92-67.53,28.1-1.24,2.79-2.16,5.72-2.85,8.7-.53,2.32-1.43,5.09-2.68,4.9Z"/>
  <path class="cls-6" d="M901.54,467.85s-10.77,3.66-15.96-9.18c-1.35-3.34-3.44-5.65-5.8-7.24-6.49-4.37-15.32-3.01-20.69,2.68-5.05,5.36-10.05,11.5-20.79,11.95-32.41,1.36-53.88-26.05-51.81-56.45,2.07-30.4,19.97-52.01,46.63-61.59,22.78-8.19,34.61-4.67,42.6,2.99,2.05,1.96,3.67,4.33,4.83,6.92,2.12,4.75,7.53,13.84,17.01,10.46,2.47-.88,5.29-3.31,6.85-5.41,2.11-2.82,6.39-7,12.22-4.81,8.48,3.19,8.19,5.09,7.18,9.39-1,4.3-8.57,24.4-8.75,37.51-.19,13.11-1.76,26.39,3.27,41.1,2.16,6.31,6.68,18.61-16.79,21.69ZM912.62,376.65,864.77,398.39s5.77-17.32-4.42-22.61c-12.46-6.48-32.12-1.07-42.54,16.38-8.45,14.15-7.75,36.47,7.48,43.28,9.76,4.36,28.96-3.86,39.47-37.05Z"/>
  <path class="cls-7" d="M1036.46,282.72c8.96-14.83,16.19-28.3,11.47-42.37-9.49-17.82-31.86-8.5-44.26,4.14-24.66,25.88-36,62.9-46.69,96.61-14.09,47.44-22.91,97.26-5.27,144.31,10.13,29.04,35.16,59.34,67.43,60.59,36.68.94,49-38.83,10.45-48.89-11.43-3.98-24.34-5.12-33.93-12.68-13.78-12.25-16-30.34-16.06-54.32.84-54.49,24.68-103.98,56.55-146.92l.31-.48Z"/>
  <path class="cls-4" d="M1084.23,340.8c-4.26,20.24,28.61,44.34,36.02,69.18,7.41,24.83-3.85,48.36-23.65,56.58-13,5.39-26.8,10.33-51.48,4.76-13.41-3.03-25.83-17.09-30.63-35.8-2.56-9.97-1.48-20.91,12.37-26.75,15.74-6.64,25.15,10.21,26.54,16.8.33,1.58,1.64,5.8,2.55,7.14,2.17,3.21,6.74,7.65,14.42,5.01,11.48-3.94,15.3-21.44,11.24-31.8-4.06-10.36-25.59-22.85-34.13-43.74-12.39-30.33-1.01-46.98,22.9-67.66,19.11-16.53,45.83-25.17,71.4-12.58,25.57,12.59,18.03,41.42,18.03,41.42,0,0-11.74,31.19-36.74,19.56,0,0-7.47-1.96-7.2-11.49.73-26.04-24.99-9.02-29.69,1.73-1.35,3.09-1.97,7.66-1.97,7.66Z"/>
  <g>
    <path class="cls-2" d="M683.76,407.1c-1.6,21.67-6.83,39.93-12.95,54.52-11.41,27.16-45.13,36.31-68.81,18.79-14.25-10.54-29.72-25.49-42.44-46.24-43.67-71.21,60.88-96.6,60.88-96.6,0,0,69.73-17.53,63.32,69.54Z"/>
    <path class="cls-1" d="M606.4,356.08c-2.49,3.98-7.72,6.62-13.47,8.17-11.89,3.21-20.41-8.21-32.14-14.2-11.74-6-30.34,4.61-24.31-11.53,5.59-14.97,30.87-11.53,45.63-2.82,6.05,3.57,11.94,6.33,16.36,10.61,2.87,2.78,5.59,5.73,6.89,8.93"/>
    <path class="cls-1" d="M593.51,363.25c4.67.46,14.03-5.13,18.76-8.74,9.8-7.47,18.11-20.23,20.52-33.19,1.93-10.41-.4-20.49-6-25.7-2.05-1.9-5.28-1.29-6.68,1.13-6.69,11.56-19.15,19.02-23.87,31.77-2.44,6.59-2.27,13.32-1.57,19.44.45,3.97,1.13,7.93,2.87,10.91"/>
    <path class="cls-3" d="M574.36,400.7c-2.52,9.26-8.57,8.57-8.57,8.57,0,0-8.14-.64-6.1-9.69,2.03-9.05,9.85-8.19,9.85-8.19,0,0,7.33.05,4.82,9.31Z"/>
    <path class="cls-3" d="M572.05,412.37c3.87-1.49,5.69-3.96,6.41-5.07.54-.82,1.45-1.35,2.43-1.31.4.02.83.11,1.29.34,3.97,1.96,4.75,6.65,2.51,10.15-2.24,3.51-5.8,4.92-9.62,4.33-3.27-.51-4.45-1.71-4.91-3.15-.12-.37-.16-.76-.13-1.15,0,0-.64-3.14,2-4.16Z"/>
    <path class="cls-3" d="M582.6,400.24l-.36-5.67c-.09-1.47-.79-2.84-1.94-3.78l-4.4-3.6c-1.34-1.1-.64-3.26,1.09-3.37l5.67-.36c1.47-.09,2.84-.79,3.78-1.94l3.6-4.4c1.1-1.34,3.26-.64,3.37,1.09l.36,5.67c.09,1.47.79,2.84,1.94,3.78l4.4,3.6c1.34,1.1.64,3.26-1.09,3.37l-5.67.36c-1.47.09-2.84.79-3.78,1.94l-3.6,4.4c-1.1,1.34-3.26.64-3.37-1.09Z"/>
  </g>
</svg>