<svg xmlns="http://www.w3.org/2000/svg" xmlns:xlink="http://www.w3.org/1999/xlink" width="500" zoomAndPan="magnify" viewBox="0 0 375 374.999991" height="500" preserveAspectRatio="xMidYMid meet" version="1.0"><defs><clipPath id="3fdbadbac8"><path d="M 37.5 40.5625 L 337 40.5625 L 337 334.5625 L 37.5 334.5625 Z M 37.5 40.5625 " clip-rule="nonzero"/></clipPath></defs><g clip-path="url(#3fdbadbac8)"><path fill="#9ab3fd" d="M 187.054688 40.5625 C 104.355469 40.5625 37.503906 107.90625 37.503906 191.222656 C 37.503906 257.820312 80.339844 314.195312 139.761719 334.148438 C 147.191406 335.648438 149.910156 330.90625 149.910156 326.917969 C 149.910156 323.425781 149.667969 311.453125 149.667969 298.976562 C 108.066406 307.960938 99.402344 281.019531 99.402344 281.019531 C 92.71875 263.558594 82.8125 259.070312 82.8125 259.070312 C 69.195312 249.839844 83.804688 249.839844 83.804688 249.839844 C 98.90625 250.839844 106.832031 265.304688 106.832031 265.304688 C 120.199219 288.25 141.742188 281.769531 150.40625 277.777344 C 151.644531 268.046875 155.609375 261.3125 159.816406 257.574219 C 126.636719 254.078125 91.730469 241.109375 91.730469 183.238281 C 91.730469 166.777344 97.667969 153.308594 107.078125 142.832031 C 105.59375 139.089844 100.390625 123.621094 108.566406 102.921875 C 108.566406 102.921875 121.191406 98.929688 149.664062 118.386719 C 161.90625 115.074219 174.371094 113.410156 187.054688 113.394531 C 199.679688 113.394531 212.550781 115.144531 224.4375 118.386719 C 252.914062 98.929688 265.542969 102.921875 265.542969 102.921875 C 273.714844 123.621094 268.511719 139.089844 267.027344 142.832031 C 276.683594 153.308594 282.378906 166.777344 282.378906 183.238281 C 282.378906 241.109375 247.46875 253.828125 214.039062 257.574219 C 219.488281 262.3125 224.191406 271.289062 224.191406 285.507812 C 224.191406 305.710938 223.945312 321.925781 223.945312 326.914062 C 223.945312 330.90625 226.671875 335.648438 234.097656 334.152344 C 293.519531 314.191406 336.355469 257.820312 336.355469 191.222656 C 336.601562 107.90625 269.503906 40.5625 187.054688 40.5625 Z M 187.054688 40.5625 " fill-opacity="1" fill-rule="evenodd"/></g></svg>