<svg xmlns="http://www.w3.org/2000/svg" xmlns:xlink="http://www.w3.org/1999/xlink" width="60" zoomAndPan="magnify" viewBox="0 0 375 374.999991" height="60" preserveAspectRatio="xMidYMid meet" version="1.0"><defs><clipPath id="660530eb30"><path d="M 39 37.5 L 337 37.5 L 337 336 L 39 336 Z M 39 37.5 " clip-rule="nonzero"/></clipPath></defs><g clip-path="url(#660530eb30)"><path fill="#9ab3fd" d="M 292.765625 291.015625 L 248.679688 291.015625 L 248.679688 221.976562 C 248.679688 205.511719 248.382812 184.316406 225.75 184.316406 C 202.789062 184.316406 199.273438 202.253906 199.273438 220.777344 L 199.273438 291.011719 L 155.1875 291.011719 L 155.1875 149.035156 L 197.511719 149.035156 L 197.511719 168.4375 L 198.101562 168.4375 C 199.15625 166.636719 200.328125 164.910156 201.613281 163.265625 C 202.902344 161.625 204.292969 160.074219 205.789062 158.617188 C 207.285156 157.160156 208.871094 155.8125 210.550781 154.570312 C 212.230469 153.328125 213.984375 152.203125 215.8125 151.199219 C 217.644531 150.195312 219.53125 149.316406 221.480469 148.566406 C 223.429688 147.816406 225.417969 147.199219 227.449219 146.71875 C 229.484375 146.238281 231.539062 145.894531 233.617188 145.691406 C 235.691406 145.488281 237.777344 145.425781 239.863281 145.503906 C 284.546875 145.503906 292.785156 174.894531 292.785156 213.128906 Z M 105.441406 129.628906 C 104.605469 129.628906 103.769531 129.585938 102.9375 129.503906 C 102.101562 129.421875 101.273438 129.300781 100.453125 129.136719 C 99.628906 128.972656 98.816406 128.769531 98.015625 128.527344 C 97.214844 128.285156 96.425781 128.003906 95.652344 127.679688 C 94.878906 127.359375 94.121094 127.003906 93.382812 126.609375 C 92.644531 126.214844 91.925781 125.785156 91.230469 125.316406 C 90.53125 124.851562 89.859375 124.355469 89.210938 123.824219 C 88.5625 123.292969 87.945312 122.730469 87.351562 122.136719 C 86.757812 121.542969 86.195312 120.925781 85.664062 120.277344 C 85.132812 119.628906 84.632812 118.957031 84.167969 118.261719 C 83.703125 117.5625 83.273438 116.847656 82.878906 116.109375 C 82.484375 115.367188 82.125 114.613281 81.804688 113.839844 C 81.484375 113.0625 81.199219 112.277344 80.957031 111.472656 C 80.714844 110.671875 80.511719 109.859375 80.347656 109.039062 C 80.183594 108.21875 80.0625 107.390625 79.976562 106.554688 C 79.894531 105.722656 79.855469 104.886719 79.855469 104.046875 C 79.855469 103.210938 79.894531 102.375 79.976562 101.539062 C 80.058594 100.707031 80.183594 99.878906 80.34375 99.054688 C 80.507812 98.234375 80.710938 97.421875 80.953125 96.621094 C 81.199219 95.820312 81.480469 95.03125 81.800781 94.257812 C 82.121094 93.484375 82.480469 92.726562 82.875 91.988281 C 83.269531 91.246094 83.699219 90.53125 84.164062 89.832031 C 84.628906 89.136719 85.128906 88.464844 85.660156 87.816406 C 86.191406 87.167969 86.753906 86.546875 87.34375 85.957031 C 87.9375 85.363281 88.558594 84.800781 89.203125 84.269531 C 89.851562 83.738281 90.523438 83.238281 91.222656 82.773438 C 91.917969 82.308594 92.636719 81.878906 93.375 81.480469 C 94.113281 81.085938 94.871094 80.730469 95.644531 80.410156 C 96.417969 80.085938 97.207031 79.804688 98.007812 79.5625 C 98.808594 79.320312 99.621094 79.117188 100.441406 78.953125 C 101.265625 78.789062 102.09375 78.664062 102.925781 78.582031 C 103.761719 78.5 104.597656 78.460938 105.433594 78.460938 C 106.273438 78.460938 107.109375 78.5 107.941406 78.582031 C 108.777344 78.664062 109.605469 78.785156 110.425781 78.949219 C 111.246094 79.113281 112.058594 79.316406 112.859375 79.558594 C 113.664062 79.800781 114.449219 80.085938 115.226562 80.40625 C 116 80.726562 116.757812 81.082031 117.496094 81.476562 C 118.234375 81.871094 118.953125 82.304688 119.648438 82.769531 C 120.34375 83.234375 121.015625 83.730469 121.664062 84.261719 C 122.3125 84.796875 122.933594 85.355469 123.527344 85.949219 C 124.117188 86.542969 124.679688 87.160156 125.210938 87.808594 C 125.742188 88.457031 126.242188 89.128906 126.707031 89.824219 C 127.171875 90.523438 127.605469 91.238281 128 91.980469 C 128.394531 92.71875 128.753906 93.472656 129.074219 94.25 C 129.394531 95.023438 129.675781 95.808594 129.917969 96.613281 C 130.164062 97.414062 130.367188 98.226562 130.53125 99.046875 C 130.695312 99.871094 130.816406 100.695312 130.898438 101.53125 C 130.980469 102.363281 131.023438 103.199219 131.023438 104.039062 C 131.023438 104.875 130.980469 105.710938 130.898438 106.546875 C 130.820312 107.378906 130.695312 108.207031 130.53125 109.03125 C 130.371094 109.851562 130.167969 110.664062 129.921875 111.464844 C 129.679688 112.265625 129.398438 113.054688 129.078125 113.828125 C 128.757812 114.605469 128.398438 115.359375 128.003906 116.097656 C 127.609375 116.839844 127.179688 117.554688 126.714844 118.253906 C 126.25 118.949219 125.75 119.621094 125.21875 120.269531 C 124.6875 120.917969 124.125 121.539062 123.53125 122.128906 C 122.941406 122.722656 122.320312 123.285156 121.671875 123.816406 C 121.027344 124.347656 120.351562 124.847656 119.65625 125.3125 C 118.960938 125.777344 118.242188 126.207031 117.503906 126.605469 C 116.765625 127 116.007812 127.355469 115.234375 127.679688 C 114.460938 128 113.671875 128.28125 112.871094 128.523438 C 112.066406 128.765625 111.257812 128.972656 110.433594 129.132812 C 109.613281 129.296875 108.785156 129.421875 107.949219 129.503906 C 107.117188 129.585938 106.28125 129.628906 105.441406 129.628906 M 127.488281 291.015625 L 83.355469 291.015625 L 83.355469 149.035156 L 127.488281 149.035156 Z M 314.746094 37.519531 L 61.199219 37.519531 C 60.488281 37.511719 59.78125 37.539062 59.074219 37.597656 C 58.363281 37.660156 57.660156 37.757812 56.960938 37.886719 C 56.265625 38.019531 55.574219 38.183594 54.890625 38.382812 C 54.210938 38.578125 53.539062 38.8125 52.878906 39.074219 C 52.21875 39.339844 51.574219 39.636719 50.941406 39.964844 C 50.3125 40.292969 49.699219 40.648438 49.101562 41.039062 C 48.507812 41.425781 47.933594 41.839844 47.378906 42.285156 C 46.824219 42.730469 46.292969 43.199219 45.785156 43.699219 C 45.277344 44.195312 44.792969 44.714844 44.335938 45.257812 C 43.878906 45.800781 43.449219 46.367188 43.046875 46.953125 C 42.644531 47.539062 42.273438 48.144531 41.929688 48.765625 C 41.585938 49.390625 41.277344 50.027344 40.996094 50.679688 C 40.714844 51.335938 40.46875 52 40.253906 52.675781 C 40.039062 53.355469 39.859375 54.042969 39.710938 54.738281 C 39.566406 55.433594 39.453125 56.132812 39.375 56.839844 C 39.296875 57.546875 39.253906 58.253906 39.246094 58.964844 L 39.246094 313.558594 C 39.253906 314.269531 39.296875 314.980469 39.375 315.6875 C 39.453125 316.394531 39.5625 317.09375 39.710938 317.789062 C 39.859375 318.484375 40.039062 319.171875 40.253906 319.851562 C 40.46875 320.527344 40.714844 321.195312 40.992188 321.847656 C 41.273438 322.503906 41.585938 323.140625 41.925781 323.765625 C 42.269531 324.386719 42.640625 324.992188 43.042969 325.578125 C 43.445312 326.164062 43.875 326.730469 44.332031 327.277344 C 44.789062 327.820312 45.273438 328.339844 45.78125 328.839844 C 46.289062 329.335938 46.820312 329.804688 47.375 330.25 C 47.929688 330.695312 48.503906 331.113281 49.097656 331.5 C 49.695312 331.890625 50.308594 332.25 50.9375 332.578125 C 51.570312 332.90625 52.214844 333.203125 52.875 333.464844 C 53.535156 333.730469 54.207031 333.964844 54.890625 334.164062 C 55.570312 334.359375 56.261719 334.527344 56.960938 334.65625 C 57.660156 334.789062 58.363281 334.886719 59.070312 334.949219 C 59.78125 335.007812 60.488281 335.035156 61.199219 335.03125 L 314.746094 335.03125 C 315.457031 335.039062 316.167969 335.011719 316.878906 334.953125 C 317.585938 334.890625 318.292969 334.796875 318.992188 334.664062 C 319.691406 334.535156 320.386719 334.371094 321.070312 334.171875 C 321.753906 333.972656 322.425781 333.742188 323.089844 333.480469 C 323.75 333.214844 324.398438 332.917969 325.03125 332.589844 C 325.664062 332.265625 326.277344 331.90625 326.875 331.519531 C 327.472656 331.128906 328.050781 330.714844 328.605469 330.269531 C 329.164062 329.824219 329.695312 329.351562 330.207031 328.855469 C 330.71875 328.359375 331.203125 327.835938 331.664062 327.292969 C 332.121094 326.75 332.554688 326.183594 332.957031 325.59375 C 333.359375 325.007812 333.734375 324.402344 334.078125 323.777344 C 334.421875 323.15625 334.734375 322.515625 335.015625 321.863281 C 335.296875 321.207031 335.546875 320.539062 335.765625 319.863281 C 335.980469 319.183594 336.164062 318.496094 336.3125 317.796875 C 336.460938 317.101562 336.574219 316.398438 336.652344 315.691406 C 336.734375 314.984375 336.777344 314.273438 336.789062 313.558594 L 336.789062 58.945312 C 336.777344 58.234375 336.734375 57.523438 336.652344 56.816406 C 336.574219 56.109375 336.457031 55.40625 336.308594 54.710938 C 336.160156 54.015625 335.976562 53.328125 335.761719 52.648438 C 335.546875 51.96875 335.296875 51.304688 335.015625 50.648438 C 334.734375 49.996094 334.421875 49.355469 334.074219 48.734375 C 333.730469 48.109375 333.355469 47.503906 332.953125 46.917969 C 332.550781 46.332031 332.117188 45.765625 331.660156 45.222656 C 331.199219 44.679688 330.714844 44.15625 330.203125 43.660156 C 329.695312 43.164062 329.160156 42.695312 328.605469 42.25 C 328.046875 41.804688 327.46875 41.390625 326.871094 41.003906 C 326.273438 40.613281 325.660156 40.257812 325.027344 39.929688 C 324.394531 39.601562 323.75 39.308594 323.085938 39.042969 C 322.425781 38.78125 321.753906 38.550781 321.066406 38.351562 C 320.382812 38.15625 319.691406 37.992188 318.992188 37.863281 C 318.292969 37.730469 317.585938 37.636719 316.875 37.578125 C 316.167969 37.515625 315.457031 37.492188 314.746094 37.5 " fill-opacity="1" fill-rule="nonzero"/></g></svg>